<?xml version="1.0" standalone="no"?>
<!DOCTYPE svg PUBLIC "-//W3C//DTD SVG 20010904//EN"
 "http://www.w3.org/TR/2001/REC-SVG-20010904/DTD/svg10.dtd">
<svg version="1.0" xmlns="http://www.w3.org/2000/svg"
 width="790.000000pt" height="200.000000pt" viewBox="0 0 790.000000 200.000000"
 preserveAspectRatio="xMidYMid meet">

<g transform="translate(0.000000,200.000000) scale(0.100000,-0.100000)"
fill="#000000" stroke="none">
<path d="M910 1984 c-173 -25 -262 -52 -377 -114 -249 -134 -425 -365 -495
-647 -30 -124 -30 -322 0 -446 70 -282 246 -513 495 -647 148 -80 279 -112
457 -113 129 -1 198 9 310 45 262 84 496 300 604 559 14 34 14 35 -7 35 -17
-1 -34 22 -86 116 -36 64 -69 120 -73 124 -4 4 -47 -73 -94 -170 -48 -98 -93
-180 -100 -183 -8 -3 -20 0 -28 6 -7 6 -57 123 -111 261 -54 137 -101 250
-104 250 -3 0 -62 -154 -130 -343 -68 -188 -135 -366 -148 -395 -22 -52 -38
-61 -55 -31 -12 21 -398 1287 -398 1305 0 45 41 -28 219 -396 108 -222 201
-405 207 -407 6 -2 37 54 69 124 142 313 214 451 235 458 12 4 26 3 30 -2 5
-4 50 -96 100 -203 94 -198 111 -227 128 -216 5 3 40 55 78 115 37 61 74 113
82 116 15 6 52 -21 52 -38 0 -5 26 -56 57 -113 36 -66 62 -104 73 -104 9 0 31
15 49 34 l33 34 -7 78 c-17 183 -91 380 -193 515 -106 139 -265 262 -420 325
-138 56 -333 85 -452 68z"/>
<path d="M2515 1548 c-3 -7 -4 -256 -3 -553 l3 -540 103 -3 102 -3 0 186 0
185 113 0 c197 0 307 31 383 106 77 78 115 211 94 330 -29 167 -135 269 -305
294 -106 15 -484 13 -490 -2z m470 -181 c80 -31 115 -85 115 -177 0 -85 -28
-136 -90 -167 -39 -20 -60 -23 -167 -23 l-123 0 0 190 0 190 118 -1 c64 0 131
-6 147 -12z"/>
<path d="M7480 1380 l0 -100 -55 0 -55 0 0 -80 0 -80 55 0 55 0 0 -238 c0
-270 8 -317 62 -369 40 -38 86 -59 153 -67 44 -6 151 6 163 19 2 2 -3 38 -13
79 l-16 76 -53 0 c-87 0 -86 -2 -86 268 l0 231 78 3 77 3 3 78 3 77 -80 0 -80
0 -3 98 -3 97 -102 3 -103 3 0 -101z"/>
<path d="M3815 1273 c-41 -21 -65 -43 -86 -78 l-19 -30 0 58 0 57 -100 0 -100
0 0 -415 0 -415 100 0 100 0 0 253 c0 138 5 268 10 287 11 41 61 94 105 110
16 6 59 10 95 9 l65 -3 3 92 3 92 -73 0 c-47 -1 -84 -7 -103 -17z"/>
<path d="M4343 1275 c-105 -32 -176 -96 -226 -204 -26 -55 -31 -79 -35 -168
-6 -130 9 -205 58 -286 74 -124 198 -184 360 -175 189 11 321 127 361 316 15
72 7 211 -16 277 -40 115 -133 208 -240 240 -59 18 -205 18 -262 0z m194 -156
c77 -29 123 -121 123 -248 0 -109 -20 -169 -73 -218 -50 -46 -97 -59 -156 -43
-94 25 -145 112 -145 250 -1 168 67 267 186 269 20 1 49 -4 65 -10z"/>
<path d="M5390 1279 c-39 -16 -90 -58 -111 -93 l-19 -31 0 63 0 62 -100 0
-100 0 2 -412 3 -413 100 0 100 0 5 285 c4 254 7 289 23 313 49 75 150 88 210
28 l32 -31 5 -298 5 -297 97 -3 97 -3 3 289 c3 257 5 291 21 315 42 64 131 86
194 47 57 -34 58 -40 63 -355 l5 -290 98 -3 97 -3 0 323 c-1 348 -3 366 -55
434 -65 85 -226 112 -336 57 -31 -17 -67 -45 -84 -68 l-31 -41 -27 42 c-40 62
-110 94 -201 93 -39 0 -82 -5 -96 -10z"/>
<path d="M6774 1272 c-22 -11 -59 -41 -82 -68 l-42 -49 0 63 0 62 -100 0 -100
0 0 -565 0 -565 100 0 100 0 0 211 0 212 43 -45 c64 -69 97 -83 197 -83 73 0
93 4 142 28 131 64 198 198 198 397 0 197 -65 325 -200 396 -53 27 -202 31
-256 6z m146 -167 c90 -46 133 -225 87 -362 -42 -120 -173 -170 -268 -102 -72
51 -109 215 -75 333 37 127 149 185 256 131z"/>
</g>
</svg>
